<?xml version="1.0" encoding="UTF-8" standalone="no"?><!-- Generator: Gravit.io --><svg xmlns="http://www.w3.org/2000/svg" xmlns:xlink="http://www.w3.org/1999/xlink" style="isolation:isolate" viewBox="0 0 85.039 8.489" width="85.039pt" height="8.489pt"><defs><clipPath id="_clipPath_ainImu3guJyzaOpsqsQ0S7VBXy3Hn83B"><rect width="85.039" height="8.489"/></clipPath></defs><g clip-path="url(#_clipPath_ainImu3guJyzaOpsqsQ0S7VBXy3Hn83B)"><path d=" M 53.64 1.344 L 45.521 1.344 L 45.521 0.185 L 53.64 0.185 L 53.64 1.344 Z " fill="rgb(65,108,153)"/><path d=" M 53.64 3.665 L 45.521 3.665 L 45.521 2.504 L 53.64 2.504 L 53.64 3.665 Z " fill="rgb(65,108,153)"/><path d=" M 53.64 5.984 L 45.521 5.984 L 45.521 4.826 L 53.64 4.826 L 53.64 5.984 Z " fill="rgb(65,108,153)"/><path d=" M 53.64 8.304 L 45.521 8.304 L 45.521 7.144 L 53.64 7.144 L 53.64 8.304 Z " fill="rgb(65,108,153)"/><path d=" M 57.699 0.185 L 60.926 0.185 C 62.218 0.185 63.245 1.058 63.245 2.258 C 63.245 3.039 62.859 3.655 62.208 3.889 C 63.278 4.075 63.839 4.891 63.839 5.903 C 63.839 7.279 62.79 8.304 61.369 8.304 L 57.699 8.304 L 57.699 0.185 Z  M 60.635 3.423 C 61.147 3.423 61.508 3.061 61.508 2.56 C 61.508 2.084 61.147 1.722 60.646 1.722 L 59.458 1.722 L 59.458 3.423 L 60.635 3.423 Z  M 61.008 6.755 C 61.612 6.755 62.057 6.323 62.057 5.764 C 62.057 5.217 61.624 4.809 60.996 4.809 L 59.458 4.809 L 59.458 6.755 L 61.008 6.755 Z " fill="rgb(65,108,153)"/><path d=" M 65.936 0.185 L 67.73 0.185 L 67.73 8.304 L 65.936 8.304 L 65.936 0.185 Z " fill="rgb(65,108,153)"/><path d=" M 74.23 0.056 C 75.547 0.056 76.71 0.639 77.514 1.57 L 76.291 2.608 C 75.779 2.037 75.046 1.687 74.23 1.687 C 72.785 1.687 71.655 2.782 71.655 4.25 C 71.655 5.718 72.785 6.801 74.23 6.801 C 75.046 6.801 75.791 6.452 76.303 5.869 L 77.527 6.905 C 76.723 7.85 75.547 8.433 74.23 8.433 C 71.817 8.433 69.862 6.673 69.862 4.25 C 69.862 1.828 71.817 0.056 74.23 0.056 Z " fill="rgb(65,108,153)"/><path d=" M 79.413 0.185 L 84.958 0.185 L 84.958 1.816 L 81.209 1.816 L 81.209 3.341 L 84.713 3.341 L 84.713 4.937 L 81.209 4.937 L 81.209 6.673 L 85.039 6.673 L 85.039 8.304 L 79.413 8.304 L 79.413 0.185 Z " fill="rgb(65,108,153)"/><path d=" M 0 0.142 L 2.441 0.142 C 3.625 0.142 4.53 0.988 4.53 2.178 C 4.53 2.979 4.131 3.65 3.415 3.885 C 4.459 4.027 5.116 4.921 5.116 6.005 C 5.116 7.334 4.094 8.347 2.745 8.347 L 0 8.347 L 0 0.142 Z  M 2.393 3.672 C 3.273 3.672 3.919 3.05 3.919 2.202 C 3.919 1.342 3.286 0.706 2.405 0.706 L 0.608 0.706 L 0.608 3.672 L 2.393 3.672 Z  M 2.711 7.783 C 3.731 7.783 4.507 7.019 4.507 6.005 C 4.507 4.992 3.742 4.239 2.664 4.239 L 0.608 4.239 L 0.608 7.783 L 2.711 7.783 Z " fill="rgb(65,108,153)"/><path d=" M 9.938 0.142 L 10.42 0.142 L 13.787 8.347 L 13.131 8.347 L 12.215 6.111 L 8.131 6.111 L 7.227 8.347 L 6.571 8.347 L 9.938 0.142 Z  M 11.981 5.545 L 10.174 1.083 L 8.366 5.545 L 11.981 5.545 Z " fill="rgb(65,108,153)"/><path d=" M 15.911 0.142 L 16.438 0.142 L 21.648 7.24 L 21.648 0.142 L 22.259 0.142 L 22.259 8.347 L 21.753 8.347 L 16.52 1.2 L 16.52 8.347 L 15.911 8.347 L 15.911 0.142 Z " fill="rgb(65,108,153)"/><path d=" M 28.805 0 C 30.06 0 31.164 0.519 31.927 1.379 L 31.516 1.766 C 30.872 1.013 29.92 0.566 28.805 0.566 C 26.729 0.566 25.18 2.143 25.18 4.249 C 25.18 6.345 26.729 7.924 28.805 7.924 C 29.92 7.924 30.895 7.464 31.528 6.7 L 31.95 7.088 C 31.188 7.971 30.06 8.489 28.805 8.489 C 26.448 8.489 24.569 6.676 24.569 4.249 C 24.569 1.813 26.436 0 28.805 0 Z " fill="rgb(65,108,153)"/><path d=" M 37.817 0 C 40.163 0 42.042 1.814 42.042 4.25 C 42.042 6.688 40.163 8.488 37.817 8.488 C 35.458 8.488 33.593 6.688 33.593 4.25 C 33.593 1.814 35.458 0 37.817 0 Z  M 37.817 7.911 C 39.882 7.911 41.418 6.334 41.418 4.25 C 41.418 2.166 39.859 0.577 37.817 0.577 C 35.764 0.577 34.191 2.166 34.191 4.25 C 34.191 6.334 35.74 7.911 37.817 7.911 Z " fill="rgb(65,108,153)"/></g></svg>